<svg xmlns="http://www.w3.org/2000/svg" viewBox="0 0 68 16" class="block -translate-y-[0.75px] text-text-000" height="15.655" fill="currentColor" aria-label="Claude" data-fc-idx="0"><path d="M7.98 15.73C6.50667 15.73 5.17667 15.4367 3.99 14.85C2.81 14.2567 1.88 13.4167 1.2 12.33C0.526669 11.2367 0.190002 9.96334 0.190002 8.51001C0.190002 7.01001 0.526669 5.67334 1.2 4.50001C1.87334 3.32668 2.8 2.41668 3.98 1.77001C5.16667 1.11668 6.49334 0.790009 7.96 0.790009C8.88667 0.790009 9.81667 0.896676 10.75 1.11001C11.69 1.32334 12.5033 1.64001 13.19 2.06001V5.36001H12.29C12.05 4.22668 11.5867 3.36334 10.9 2.77001C10.2133 2.17668 9.24 1.88001 7.98 1.88001C6.85334 1.88001 5.91334 2.15334 5.16 2.70001C4.40667 3.24001 3.84667 3.98334 3.48 4.93001C3.12 5.87001 2.94 6.94668 2.94 8.16001C2.94 9.37334 3.14667 10.4733 3.56 11.46C3.97334 12.44 4.57667 13.2167 5.37 13.79C6.16334 14.3567 7.11 14.64 8.21 14.64C8.97667 14.64 9.63667 14.4733 10.19 14.14C10.75 13.8 11.2167 13.3533 11.59 12.8C11.97 12.2467 12.3367 11.5667 12.69 10.76H13.63L12.99 14.43C12.35 14.8567 11.5733 15.18 10.66 15.4C9.75334 15.62 8.86 15.73 7.98 15.73ZM15.15 14.63C15.4833 14.5833 15.7433 14.53 15.93 14.47C16.1167 14.41 16.2633 14.3167 16.37 14.19C16.4767 14.0567 16.53 13.8733 16.53 13.64V2.96001L15.15 2.31001V1.65001L18.12 0.26001H18.91V13.64C18.91 13.8733 18.9633 14.0567 19.07 14.19C19.1767 14.3167 19.3233 14.41 19.51 14.47C19.6967 14.53 19.96 14.5833 20.3 14.63V15.5H15.15V14.63ZM24.44 15.73C23.8867 15.73 23.39 15.6167 22.95 15.39C22.51 15.1567 22.1667 14.8367 21.92 14.43C21.68 14.0233 21.56 13.5567 21.56 13.03C21.56 12.2633 21.7967 11.6233 22.27 11.11C22.75 10.5967 23.47 10.2033 24.43 9.93001L27.87 8.96001V7.56001C27.87 6.85334 27.7033 6.31668 27.37 5.95001C27.0433 5.58334 26.5633 5.40001 25.93 5.40001C25.37 5.40001 24.93 5.57668 24.61 5.93001C24.2967 6.27668 24.14 6.75668 24.14 7.37001V8.35001H22.47C22.2833 8.23001 22.1367 8.06334 22.03 7.85001C21.93 7.63668 21.88 7.40334 21.88 7.15001C21.88 6.67668 22.06 6.24001 22.42 5.84001C22.78 5.43334 23.2633 5.11334 23.87 4.88001C24.4833 4.64668 25.16 4.53001 25.9 4.53001C26.8133 4.53001 27.5933 4.67334 28.24 4.96001C28.8933 5.24668 29.39 5.66668 29.73 6.22001C30.0767 6.77334 30.25 7.43668 30.25 8.21001V13.5C30.25 13.7333 30.29 13.9133 30.37 14.04C30.45 14.1667 30.5867 14.2667 30.78 14.34C30.98 14.4133 31.2633 14.4767 31.63 14.53V15.39C31.0967 15.5967 30.5633 15.7 30.03 15.7C29.4367 15.7 28.9567 15.56 28.59 15.28C28.23 15 28.0067 14.6 27.92 14.08C27.44 14.62 26.9067 15.03 26.32 15.31C25.7333 15.59 25.1067 15.73 24.44 15.73ZM25.62 14.13C26.0067 14.13 26.3967 14.0433 26.79 13.87C27.1833 13.69 27.5433 13.4433 27.87 13.13V9.87001L25.43 10.61C24.9233 10.7567 24.5433 10.99 24.29 11.31C24.0433 11.6233 23.92 12.0267 23.92 12.52C23.92 12.8267 23.9933 13.1033 24.14 13.35C24.2867 13.59 24.49 13.78 24.75 13.92C25.01 14.06 25.3 14.13 25.62 14.13ZM36.56 15.73C35.48 15.73 34.68 15.4467 34.16 14.88C33.6467 14.3133 33.39 13.53 33.39 12.53V6.91001L32.01 6.37001V5.70001L34.98 4.53001H35.77V12.12C35.77 12.7533 35.9233 13.2233 36.23 13.53C36.5433 13.8367 37.0133 13.99 37.64 13.99C38.0533 13.99 38.4833 13.8967 38.93 13.71C39.3833 13.5167 39.8 13.27 40.18 12.97V6.91001L38.8 6.37001V5.70001L41.77 4.53001H42.56V12.91C42.56 13.17 42.6133 13.37 42.72 13.51C42.8333 13.65 42.9833 13.7533 43.17 13.82C43.3567 13.88 43.6167 13.9333 43.95 13.98V14.84L40.97 15.69H40.18V13.96C39.6667 14.4933 39.0867 14.9233 38.44 15.25C37.8 15.57 37.1733 15.73 36.56 15.73ZM49.61 15.73C48.7367 15.73 47.9567 15.51 47.27 15.07C46.5833 14.6233 46.0467 14.02 45.66 13.26C45.28 12.5 45.09 11.66 45.09 10.74C45.09 9.56668 45.3167 8.51001 45.77 7.57001C46.2233 6.63001 46.8733 5.89001 47.72 5.35001C48.5733 4.80334 49.5767 4.53001 50.73 4.53001C51.0767 4.53001 51.43 4.56668 51.79 4.64001C52.15 4.70668 52.4967 4.81001 52.83 4.95001V2.96001L51.45 2.31001V1.65001L54.42 0.26001H55.21V12.91C55.21 13.17 55.2633 13.37 55.37 13.51C55.4833 13.65 55.6333 13.7533 55.82 13.82C56.0067 13.88 56.2667 13.9333 56.6 13.98V14.84L53.62 15.69H52.83V14.39C52.3833 14.8167 51.8867 15.1467 51.34 15.38C50.7933 15.6133 50.2167 15.73 49.61 15.73ZM50.6 14.12C50.9867 14.12 51.3733 14.0467 51.76 13.9C52.1467 13.7467 52.5033 13.5367 52.83 13.27V6.38001C52.2567 5.92001 51.6167 5.69001 50.91 5.69001C50.1767 5.69001 49.5567 5.89001 49.05 6.29001C48.55 6.68334 48.1767 7.21334 47.93 7.88001C47.69 8.54668 47.57 9.28334 47.57 10.09C47.57 10.8567 47.6767 11.5433 47.89 12.15C48.11 12.7567 48.4467 13.2367 48.9 13.59C49.3533 13.9433 49.92 14.12 50.6 14.12ZM62.93 15.73C61.9433 15.73 61.0533 15.4967 60.26 15.03C59.4733 14.5567 58.8567 13.9033 58.41 13.07C57.9633 12.2367 57.74 11.3 57.74 10.26C57.74 9.18001 57.9667 8.20334 58.42 7.33001C58.88 6.45668 59.51 5.77334 60.31 5.28001C61.1167 4.78001 62.0167 4.53001 63.01 4.53001C63.77 4.53001 64.4667 4.68668 65.1 5.00001C65.7333 5.31334 66.2567 5.76001 66.67 6.34001C67.09 6.92001 67.37 7.59001 67.51 8.35001L60.14 10.66C60.3333 11.62 60.7267 12.38 61.32 12.94C61.92 13.4933 62.67 13.77 63.57 13.77C64.31 13.77 64.9767 13.5733 65.57 13.18C66.17 12.78 66.7 12.18 67.16 11.38L67.93 11.63C67.7633 12.4433 67.44 13.16 66.96 13.78C66.4867 14.4 65.9 14.88 65.2 15.22C64.5067 15.56 63.75 15.73 62.93 15.73ZM64.95 8.03001C64.8567 7.55668 64.6933 7.14001 64.46 6.78001C64.2267 6.42001 63.94 6.14001 63.6 5.94001C63.2667 5.74001 62.9033 5.64001 62.51 5.64001C62.01 5.64001 61.57 5.79334 61.19 6.10001C60.8167 6.40001 60.5267 6.83001 60.32 7.39001C60.1133 7.95001 60.01 8.60001 60.01 9.34001C60.01 9.46668 60.0133 9.56334 60.02 9.63001L64.95 8.03001Z" style="fill: rgb(20, 20, 19) !important;"/></svg>